<?xml version="1.0" standalone="no"?>
<!DOCTYPE svg PUBLIC "-//W3C//DTD SVG 20010904//EN"
 "http://www.w3.org/TR/2001/REC-SVG-20010904/DTD/svg10.dtd">
<svg version="1.0" xmlns="http://www.w3.org/2000/svg"
 width="956.000000pt" height="1080.000000pt" viewBox="0 0 956.000000 1080.000000"
 preserveAspectRatio="xMidYMid meet">
<metadata>
Created by potrace 1.16, written by Peter Selinger 2001-2019
</metadata>
<g transform="translate(0.000000,1080.000000) scale(0.100000,-0.100000)"
fill="#000000" stroke="none">
<path d="M0 5400 l0 -5400 4780 0 4780 0 0 5400 0 5400 -4780 0 -4780 0 0
-5400z m5030 2540 c133 -234 253 -443 265 -465 l23 -40 -36 -65 c-90 -165
-476 -836 -487 -848 -11 -12 -28 16 -521 883 l-23 40 237 415 c284 498 293
512 297 508 1 -2 112 -194 245 -428z m-666 -1264 c220 -382 257 -452 248 -470
-11 -23 -402 -703 -1196 -2078 l-519 -898 -539 0 -539 0 16 30 c9 18 21 28 27
24 7 -4 8 -3 4 4 -7 12 134 260 1137 2002 200 346 1001 1737 1054 1828 23 39
27 41 38 25 6 -10 128 -220 269 -467z m1301 164 c726 -1249 2075 -3594 2075
-3605 0 -3 -240 -4 -532 -3 l-533 3 -337 585 c-991 1716 -1329 2310 -1322
2323 4 7 3 9 -1 4 -13 -12 -57 70 -50 93 4 11 11 17 17 14 6 -4 8 -2 5 3 -4 6
76 154 176 329 101 176 214 374 252 441 39 67 71 121 72 120 1 -1 81 -139 178
-307z m-660 -1277 c116 -202 225 -394 243 -427 19 -34 41 -73 50 -88 17 -29
55 39 -759 -1375 l-254 -443 -533 0 -532 0 14 23 c8 12 189 326 403 697 778
1348 1145 1980 1152 1980 3 0 101 -165 216 -367z m606 -1045 c303 -526 729
-1273 729 -1280 0 -4 -387 -8 -860 -8 -473 0 -860 2 -860 4 0 4 593 1043 776
1358 43 76 82 138 86 138 3 0 62 -96 129 -212z m-4216 -4012 c25 -11 33 -19
29 -30 -7 -19 -5 -19 -40 -1 -36 18 -55 19 -78 2 -28 -21 -9 -45 49 -62 87
-25 108 -74 54 -127 -29 -29 -33 -30 -90 -25 -68 6 -72 8 -64 29 5 13 12 14
40 5 50 -15 100 1 100 33 0 16 -8 28 -25 36 -87 40 -105 51 -108 67 -14 70 53
106 133 73z m587 -48 l3 -62 36 32 c20 18 45 32 55 32 14 0 9 -9 -21 -40 l-39
-40 42 -60 c40 -57 41 -60 20 -60 -16 0 -32 14 -53 45 -16 25 -33 45 -37 45
-5 0 -8 -20 -8 -45 0 -38 -3 -45 -20 -45 -19 0 -20 7 -20 130 0 122 1 130 20
130 16 0 19 -8 22 -62z m-1353 -24 c12 -15 21 -40 21 -55 0 -29 0 -29 -65 -29
-72 0 -83 -12 -44 -51 17 -17 30 -20 65 -16 43 4 59 -5 28 -17 -45 -17 -106 3
-123 41 -45 98 56 206 118 127z m456 3 c20 -16 28 -35 32 -69 5 -42 3 -50 -25
-78 -41 -41 -83 -41 -124 0 -28 28 -30 36 -25 78 9 82 84 119 142 69z m622 8
c30 -21 44 -75 32 -120 -25 -88 -143 -88 -168 0 -20 72 20 135 84 135 17 0 40
-7 52 -15z"/>
<path d="M986 424 c-50 -50 -21 -144 44 -144 48 0 80 50 66 104 -13 53 -75 75
-110 40z"/>
</g>
</svg>
